<?xml version="1.0" standalone="no"?>
<!DOCTYPE svg PUBLIC "-//W3C//DTD SVG 20010904//EN"
 "http://www.w3.org/TR/2001/REC-SVG-20010904/DTD/svg10.dtd">
<svg version="1.0" xmlns="http://www.w3.org/2000/svg" viewBox="0 0 300.000000 300.000000">
<g transform="translate(0.000000,300.000000) scale(0.100000,-0.100000)"
fill="#ccc" stroke="none">
<path d="M2543 2445 c-34 -34 -35 -39 -31 -88 l5 -52 -190 -157 -189 -156 -33
14 c-39 16 -85 10 -112 -16 -18 -16 -27 -13 -198 80 -167 91 -180 100 -177
124 6 59 -56 126 -118 126 -66 0 -127 -71 -116 -134 5 -31 4 -32 -180 -154
-166 -110 -188 -122 -202 -109 -64 55 -182 -5 -182 -93 0 -24 -13 -31 -171
-97 l-171 -71 -35 24 c-84 57 -183 2 -183 -102 0 -28 8 -44 34 -70 29 -29 41
-34 81 -34 40 0 52 5 81 34 26 26 34 43 34 69 l0 34 176 73 175 72 23 -21 c32
-30 85 -37 124 -17 44 23 62 54 62 106 l0 45 185 123 c178 119 185 123 207
108 30 -21 86 -20 122 2 l30 18 178 -96 178 -95 0 -40 c0 -47 19 -79 60 -100
85 -44 176 25 168 126 l-3 40 190 159 c176 147 191 157 209 144 44 -31 124 -7
151 46 26 50 20 97 -19 136 -29 29 -41 34 -81 34 -40 0 -52 -5 -82 -35z m118
-18 c61 -46 32 -132 -42 -125 -40 4 -74 45 -64 77 16 50 71 75 106 48z m-1111
-177 c11 -11 20 -31 20 -45 0 -31 -41 -75 -70 -75 -29 0 -70 44 -70 75 0 34
33 65 70 65 17 0 39 -9 50 -20z m557 -302 c46 -43 16 -118 -46 -118 -33 0 -71
39 -71 72 0 26 44 68 71 68 13 0 33 -10 46 -22z m-1122 -73 c30 -30 31 -54 4
-89 -40 -50 -119 -21 -119 44 0 35 34 70 67 70 13 0 35 -11 48 -25z m-552
-247 c17 -23 18 -31 8 -56 -25 -59 -104 -63 -130 -6 -15 33 -14 37 10 68 29
36 83 33 112 -6z"/>
<path d="M2485 2015 l-25 -24 0 -716 c0 -702 0 -715 20 -735 18 -18 33 -20
145 -20 112 0 127 2 145 20 20 20 20 33 20 735 l0 716 -25 24 c-23 24 -30 25
-140 25 -110 0 -117 -1 -140 -25z m253 -737 l-3 -713 -110 0 -110 0 -3 713 -2
712 115 0 115 0 -2 -712z"/>
<path d="M1387 1871 c-6 -2 -20 -10 -29 -19 -17 -14 -18 -58 -18 -657 0 -609
1 -643 18 -658 15 -14 41 -17 144 -17 108 0 127 2 141 18 15 17 17 77 17 659
0 618 -1 640 -19 657 -16 14 -41 18 -130 19 -61 1 -117 0 -124 -2z m228 -676
l0 -630 -115 0 -115 0 -3 620 c-1 341 0 626 3 633 3 9 33 12 117 10 l113 -3 0
-630z"/>
<path d="M1920 1550 c-19 -19 -20 -33 -20 -503 0 -421 2 -485 16 -505 14 -21
22 -22 144 -22 188 0 170 -55 170 527 l0 474 -25 24 c-23 24 -30 25 -145 25
-107 0 -122 -2 -140 -20z m258 -507 l-3 -478 -104 -3 c-57 -1 -108 1 -113 6
-6 6 -13 825 -8 947 0 3 52 5 115 5 l115 0 -2 -477z"/>
<path d="M799 1481 l-24 -19 -3 -444 c-3 -548 -20 -498 168 -498 122 0 130 1
144 22 14 20 16 81 16 468 l0 447 -23 21 c-21 20 -34 22 -139 22 -99 0 -119
-3 -139 -19z m252 -470 c0 -239 -4 -438 -9 -443 -5 -5 -56 -7 -113 -6 l-104 3
-3 443 -2 443 116 -3 115 -3 0 -434z"/>
<path d="M253 1260 c-12 -5 -26 -18 -32 -29 -7 -13 -11 -134 -11 -345 0 -400
-15 -366 165 -366 180 0 165 -34 165 369 0 406 12 375 -152 378 -62 2 -123 -2
-135 -7z m232 -370 l0 -325 -110 0 -110 0 -3 315 c-1 173 0 321 3 328 3 9 31
12 112 10 l108 -3 0 -325z"/>
</g>
</svg>